<svg width="23" height="29" viewBox="0 0 23 29" fill="none" xmlns="http://www.w3.org/2000/svg">
<path d="M18.8641 15.6402C18.9029 19.8855 22.5301 21.2981 22.5702 21.3162C22.5395 21.4157 21.9906 23.3293 20.6593 25.3059C19.5084 27.0148 18.3139 28.7173 16.4321 28.7526C14.5833 28.7872 13.9887 27.6388 11.8748 27.6388C9.76158 27.6388 9.10101 28.7173 7.35075 28.7872C5.53444 28.857 4.15131 26.9394 2.99091 25.2367C0.619523 21.7541 -1.19266 15.3954 1.24065 11.1032C2.44944 8.97166 4.60978 7.62198 6.95447 7.58736C8.73801 7.55283 10.4215 8.80633 11.5118 8.80633C12.6014 8.80633 14.6472 7.2989 16.7979 7.52027C17.6982 7.55836 20.2255 7.88965 21.8484 10.3028C21.7175 10.3851 18.8327 12.0912 18.8641 15.6403M15.3893 5.21616C16.3537 4.03039 17.0027 2.37976 16.8256 0.737244C15.4356 0.79399 13.7549 1.67819 12.7579 2.86326C11.8644 3.91279 11.0819 5.59251 11.2931 7.20245C12.8424 7.32424 14.425 6.40266 15.3893 5.21616Z" fill="#2C2C2C"/>
</svg>
