<svg width="30" height="30" viewBox="0 0 30 30" fill="none" xmlns="http://www.w3.org/2000/svg">
<path d="M26.8346 12.3858H25.8643V12.3358H15.0237V17.1538H21.831C20.8379 19.9585 18.1693 21.9719 15.0237 21.9719C11.0325 21.9719 7.79658 18.736 7.79658 14.7448C7.79658 10.7536 11.0325 7.51771 15.0237 7.51771C16.866 7.51771 18.5421 8.21271 19.8182 9.34797L23.2252 5.941C21.074 3.93608 18.1964 2.69965 15.0237 2.69965C8.37173 2.69965 2.97852 8.09286 2.97852 14.7448C2.97852 21.3967 8.37173 26.79 15.0237 26.79C21.6756 26.79 27.0688 21.3967 27.0688 14.7448C27.0688 13.9372 26.9857 13.1488 26.8346 12.3858Z" fill="#FFC107"/>
<path d="M4.36719 9.13839L8.32462 12.0407C9.39544 9.38953 11.9888 7.51771 15.0235 7.51771C16.8658 7.51771 18.5419 8.21271 19.8181 9.34797L23.2251 5.941C21.0738 3.93608 18.1962 2.69965 15.0235 2.69965C10.397 2.69965 6.38475 5.31164 4.36719 9.13839Z" fill="#FF3D00"/>
<path d="M15.024 26.79C18.1352 26.79 20.9622 25.5993 23.0997 23.6631L19.3717 20.5085C18.1217 21.4591 16.5943 21.9732 15.024 21.9719C11.891 21.9719 9.23087 19.9743 8.22871 17.1864L4.30078 20.2127C6.29426 24.1136 10.3426 26.79 15.024 26.79Z" fill="#4CAF50"/>
<path d="M26.8363 12.3858H25.866V12.3358H15.0254V17.1538H21.8327C21.3577 18.4887 20.5019 19.6551 19.3713 20.509L19.3731 20.5078L23.1011 23.6624C22.8373 23.9021 27.0705 20.7674 27.0705 14.7448C27.0705 13.9372 26.9874 13.1488 26.8363 12.3858Z" fill="#1976D2"/>
</svg>
